<mxfile host="app.diagrams.net" modified="2024-02-21T14:58:49.865Z" agent="Mozilla/5.0 (Windows NT 10.0; Win64; x64) AppleWebKit/537.36 (KHTML, like Gecko) Chrome/121.0.0.0 Safari/537.36" etag="cfpJpu4JlxPHggslKX4n" version="23.1.5" type="device">
  <diagram name="Page-1" id="ABgewt7J01s91cYGauXG">
    <mxGraphModel dx="848" dy="521" grid="1" gridSize="10" guides="1" tooltips="1" connect="1" arrows="1" fold="1" page="1" pageScale="1" pageWidth="3300" pageHeight="4681" math="0" shadow="0">
      <root>
        <mxCell id="0" />
        <mxCell id="1" parent="0" />
        <mxCell id="q_0qz1a4ClDojRbCBRkg-11" style="rounded=0;orthogonalLoop=1;jettySize=auto;html=1;exitX=0.5;exitY=0.5;exitDx=0;exitDy=0;exitPerimeter=0;entryX=0;entryY=0.5;entryDx=0;entryDy=0;" edge="1" parent="1" source="q_0qz1a4ClDojRbCBRkg-1" target="q_0qz1a4ClDojRbCBRkg-10">
          <mxGeometry relative="1" as="geometry" />
        </mxCell>
        <mxCell id="q_0qz1a4ClDojRbCBRkg-17" style="rounded=0;orthogonalLoop=1;jettySize=auto;html=1;exitX=0.5;exitY=0.5;exitDx=0;exitDy=0;exitPerimeter=0;entryX=0;entryY=0.5;entryDx=0;entryDy=0;" edge="1" parent="1" source="q_0qz1a4ClDojRbCBRkg-1" target="q_0qz1a4ClDojRbCBRkg-16">
          <mxGeometry relative="1" as="geometry" />
        </mxCell>
        <mxCell id="q_0qz1a4ClDojRbCBRkg-18" style="rounded=0;orthogonalLoop=1;jettySize=auto;html=1;exitX=0.5;exitY=0.5;exitDx=0;exitDy=0;exitPerimeter=0;entryX=0;entryY=0.5;entryDx=0;entryDy=0;" edge="1" parent="1" source="q_0qz1a4ClDojRbCBRkg-1" target="q_0qz1a4ClDojRbCBRkg-15">
          <mxGeometry relative="1" as="geometry" />
        </mxCell>
        <mxCell id="q_0qz1a4ClDojRbCBRkg-1" value="Teacher" style="shape=umlActor;verticalLabelPosition=bottom;verticalAlign=top;html=1;outlineConnect=0;" vertex="1" parent="1">
          <mxGeometry x="170" y="440" width="30" height="60" as="geometry" />
        </mxCell>
        <mxCell id="q_0qz1a4ClDojRbCBRkg-12" style="rounded=0;orthogonalLoop=1;jettySize=auto;html=1;exitX=0.5;exitY=0.5;exitDx=0;exitDy=0;exitPerimeter=0;entryX=1;entryY=0.5;entryDx=0;entryDy=0;" edge="1" parent="1" source="q_0qz1a4ClDojRbCBRkg-2" target="q_0qz1a4ClDojRbCBRkg-10">
          <mxGeometry relative="1" as="geometry" />
        </mxCell>
        <mxCell id="q_0qz1a4ClDojRbCBRkg-14" style="rounded=0;orthogonalLoop=1;jettySize=auto;html=1;exitX=0.5;exitY=0.5;exitDx=0;exitDy=0;exitPerimeter=0;entryX=1;entryY=0.5;entryDx=0;entryDy=0;" edge="1" parent="1" source="q_0qz1a4ClDojRbCBRkg-2" target="q_0qz1a4ClDojRbCBRkg-13">
          <mxGeometry relative="1" as="geometry" />
        </mxCell>
        <mxCell id="q_0qz1a4ClDojRbCBRkg-21" style="rounded=0;orthogonalLoop=1;jettySize=auto;html=1;exitX=0.5;exitY=0.5;exitDx=0;exitDy=0;exitPerimeter=0;entryX=1;entryY=0.5;entryDx=0;entryDy=0;" edge="1" parent="1" source="q_0qz1a4ClDojRbCBRkg-2" target="q_0qz1a4ClDojRbCBRkg-19">
          <mxGeometry relative="1" as="geometry" />
        </mxCell>
        <mxCell id="q_0qz1a4ClDojRbCBRkg-2" value="Admin" style="shape=umlActor;verticalLabelPosition=bottom;verticalAlign=top;html=1;outlineConnect=0;" vertex="1" parent="1">
          <mxGeometry x="890" y="440" width="30" height="60" as="geometry" />
        </mxCell>
        <mxCell id="q_0qz1a4ClDojRbCBRkg-9" value="Attendance System&#xa;" style="swimlane;startSize=0;" vertex="1" parent="1">
          <mxGeometry x="230" y="160" width="630" height="690" as="geometry" />
        </mxCell>
        <mxCell id="q_0qz1a4ClDojRbCBRkg-10" value="Login" style="ellipse;whiteSpace=wrap;html=1;" vertex="1" parent="q_0qz1a4ClDojRbCBRkg-9">
          <mxGeometry x="226.25" y="50" width="137.5" height="30" as="geometry" />
        </mxCell>
        <mxCell id="q_0qz1a4ClDojRbCBRkg-13" value="Give Credintials" style="ellipse;whiteSpace=wrap;html=1;" vertex="1" parent="q_0qz1a4ClDojRbCBRkg-9">
          <mxGeometry x="226.25" y="100" width="137.5" height="30" as="geometry" />
        </mxCell>
        <mxCell id="q_0qz1a4ClDojRbCBRkg-15" value="View Classes" style="ellipse;whiteSpace=wrap;html=1;" vertex="1" parent="q_0qz1a4ClDojRbCBRkg-9">
          <mxGeometry x="226.25" y="150" width="137.5" height="30" as="geometry" />
        </mxCell>
        <mxCell id="q_0qz1a4ClDojRbCBRkg-16" value="View Reports" style="ellipse;whiteSpace=wrap;html=1;" vertex="1" parent="q_0qz1a4ClDojRbCBRkg-9">
          <mxGeometry x="226.25" y="210" width="137.5" height="30" as="geometry" />
        </mxCell>
        <mxCell id="q_0qz1a4ClDojRbCBRkg-26" style="rounded=0;orthogonalLoop=1;jettySize=auto;html=1;exitX=0.5;exitY=1;exitDx=0;exitDy=0;entryX=0.5;entryY=0;entryDx=0;entryDy=0;" edge="1" parent="q_0qz1a4ClDojRbCBRkg-9" source="q_0qz1a4ClDojRbCBRkg-19" target="q_0qz1a4ClDojRbCBRkg-23">
          <mxGeometry relative="1" as="geometry" />
        </mxCell>
        <mxCell id="q_0qz1a4ClDojRbCBRkg-30" style="rounded=0;orthogonalLoop=1;jettySize=auto;html=1;exitX=0;exitY=0.5;exitDx=0;exitDy=0;entryX=0.5;entryY=0;entryDx=0;entryDy=0;" edge="1" parent="q_0qz1a4ClDojRbCBRkg-9" source="q_0qz1a4ClDojRbCBRkg-19" target="q_0qz1a4ClDojRbCBRkg-29">
          <mxGeometry relative="1" as="geometry" />
        </mxCell>
        <mxCell id="q_0qz1a4ClDojRbCBRkg-32" style="rounded=0;orthogonalLoop=1;jettySize=auto;html=1;exitX=1;exitY=1;exitDx=0;exitDy=0;entryX=0.5;entryY=0;entryDx=0;entryDy=0;" edge="1" parent="q_0qz1a4ClDojRbCBRkg-9" source="q_0qz1a4ClDojRbCBRkg-19" target="q_0qz1a4ClDojRbCBRkg-31">
          <mxGeometry relative="1" as="geometry" />
        </mxCell>
        <mxCell id="q_0qz1a4ClDojRbCBRkg-36" style="rounded=0;orthogonalLoop=1;jettySize=auto;html=1;exitX=0.5;exitY=1;exitDx=0;exitDy=0;entryX=0.5;entryY=0;entryDx=0;entryDy=0;" edge="1" parent="q_0qz1a4ClDojRbCBRkg-9" source="q_0qz1a4ClDojRbCBRkg-19" target="q_0qz1a4ClDojRbCBRkg-35">
          <mxGeometry relative="1" as="geometry" />
        </mxCell>
        <mxCell id="q_0qz1a4ClDojRbCBRkg-38" style="rounded=0;orthogonalLoop=1;jettySize=auto;html=1;exitX=0;exitY=0.5;exitDx=0;exitDy=0;" edge="1" parent="q_0qz1a4ClDojRbCBRkg-9" source="q_0qz1a4ClDojRbCBRkg-19" target="q_0qz1a4ClDojRbCBRkg-37">
          <mxGeometry relative="1" as="geometry" />
        </mxCell>
        <mxCell id="q_0qz1a4ClDojRbCBRkg-19" value="Edit&amp;nbsp;Database" style="ellipse;whiteSpace=wrap;html=1;" vertex="1" parent="q_0qz1a4ClDojRbCBRkg-9">
          <mxGeometry x="226.25" y="260" width="137.5" height="30" as="geometry" />
        </mxCell>
        <mxCell id="q_0qz1a4ClDojRbCBRkg-23" value="Add/delete students" style="ellipse;whiteSpace=wrap;html=1;" vertex="1" parent="q_0qz1a4ClDojRbCBRkg-9">
          <mxGeometry x="200" y="380" width="137.5" height="30" as="geometry" />
        </mxCell>
        <mxCell id="q_0qz1a4ClDojRbCBRkg-29" value="Add/delete Classes" style="ellipse;whiteSpace=wrap;html=1;" vertex="1" parent="q_0qz1a4ClDojRbCBRkg-9">
          <mxGeometry x="20" y="320" width="140" height="30" as="geometry" />
        </mxCell>
        <mxCell id="q_0qz1a4ClDojRbCBRkg-31" value="Assign Teachers to classes" style="ellipse;whiteSpace=wrap;html=1;" vertex="1" parent="q_0qz1a4ClDojRbCBRkg-9">
          <mxGeometry x="490" y="350" width="107.5" height="50" as="geometry" />
        </mxCell>
        <mxCell id="q_0qz1a4ClDojRbCBRkg-35" value="Assign Students to classes" style="ellipse;whiteSpace=wrap;html=1;" vertex="1" parent="q_0qz1a4ClDojRbCBRkg-9">
          <mxGeometry x="350" y="370" width="107.5" height="50" as="geometry" />
        </mxCell>
        <mxCell id="q_0qz1a4ClDojRbCBRkg-37" value="Add/delete Teachers" style="ellipse;whiteSpace=wrap;html=1;" vertex="1" parent="q_0qz1a4ClDojRbCBRkg-9">
          <mxGeometry x="60" y="390" width="140" height="30" as="geometry" />
        </mxCell>
      </root>
    </mxGraphModel>
  </diagram>
</mxfile>
